<?xml version="1.0" encoding="utf-8"?>
<!-- Generator: Adobe Illustrator 22.0.1, SVG Export Plug-In . SVG Version: 6.00 Build 0)  -->
<svg version="1.1" id="Layer_1" xmlns="http://www.w3.org/2000/svg" xmlns:xlink="http://www.w3.org/1999/xlink" x="0px" y="0px"
	 viewBox="0 0 2833 1206.3" style="enable-background:new 0 0 2833 1206.3;" xml:space="preserve">
<style type="text/css">
	.st0{fill:#0B0B0B;}
</style>
<g>
	<path class="st0" d="M915.2,1204.7L192.4,420.4L155.2,380v805.3H0V1.6h1.6l722.8,784.3l37.2,40.4V21h155.2v1183.7H915.2z"/>
	<path class="st0" d="M1225.7,294.3C1225.7,126.1,1372.8,0,1573.3,0C1772.2,0,1921,126.1,1921,294.3
		c0,153.6-121.3,257.1-219.9,299.2c113.2,50.1,244.2,153.6,244.2,313.7c0,171.4-155.2,299.2-371.9,299.2
		c-216.7,0-373.5-127.7-373.5-299.2c0-160.1,129.4-265.2,245.8-313.7C1345.3,551.4,1225.7,447.9,1225.7,294.3z M1573.3,1072.1
		c127.7,0,223.2-77.6,223.2-181.1s-98.6-190.8-223.2-237.7c-124.5,46.9-224.8,134.2-224.8,237.7S1445.6,1072.1,1573.3,1072.1z
		 M1573.3,530.4c110-46.9,198.9-116.4,198.9-223.1c0-98.6-85.7-174.6-198.9-174.6c-114.8,0-198.9,76-198.9,174.6
		C1374.4,414,1461.8,483.5,1573.3,530.4z"/>
	<path class="st0" d="M2165.1,1185.3l454.4-1030h-536.9V21H2833l-502.9,1164.3H2165.1z"/>
</g>
</svg>
