<?xml version="1.0" encoding="utf-8"?>
<!-- Generator: Adobe Illustrator 22.0.1, SVG Export Plug-In . SVG Version: 6.00 Build 0)  -->
<svg version="1.1" id="mockup_xA0_Image_1_" xmlns="http://www.w3.org/2000/svg" xmlns:xlink="http://www.w3.org/1999/xlink"
	 x="0px" y="0px" viewBox="0 0 1769 194.7" style="enable-background:new 0 0 1769 194.7;" xml:space="preserve">
<g>
	<path d="M147.7,194.4L31.1,67.9l-6-6.5v130H0V0.3h0.3l116.7,126.6l6,6.5V3.4H148v191.1H147.7z"/>
	<path d="M290,0.3c53.8,0,96.3,42,96.3,97.1s-41.8,97.1-96.3,97.1s-96.3-42-96.3-97.1C193.7,43.1,235.4,0.3,290,0.3z M290,171.2
		c40.7,0,70.7-31.3,70.7-73.9c0-42.5-30-73.9-70.7-73.9s-71,31.3-71,73.9C219,139.9,249.3,171.2,290,171.2z"/>
	<path d="M486.5,194.4H486L399.3,3.4h26.9L452,62.1c13,29.8,23.5,51.9,34.2,78.8c10.7-26.9,21.1-49.1,34.2-78.8l25.8-58.7h26.9
		L486.5,194.4z"/>
	<path d="M607.1,191.3V3.4h115.4v21.1h-90.3v61.1h76.2v21.1h-76.2v63.4h94.2v21.1H607.1z"/>
	<path d="M801.3,71.5l-5-6v125.8H772V0.3h0.3l85.1,104.1L942.7,0.3h0.3v191.1h-24.3V65.5l-5,6l-56.4,68.1L801.3,71.5z"/>
	<path d="M1129.9,138.3c0,31.8-25.1,53-62.4,53H1003V3.4h57.7c37.1,0,61.6,19.3,61.6,51.4c0,16.2-8.9,31.1-23.5,37.8
		C1117.3,99.4,1129.9,117.7,1129.9,138.3z M1077.1,84.8c11.7-3.1,19.6-13.6,19.6-28.7c0-19.3-12.8-32.4-34.2-32.4h-35.2v61.1H1077.1
		z M1027.3,171h41c21.7,0,36-13.6,36-33.7s-12.5-32.9-31.1-32.9h-45.9V171z"/>
	<path d="M1178.1,191.3V3.4h115.4v21.1h-90.3v61.1h76.2v21.1h-76.2v63.4h94.2v21.1H1178.1z"/>
	<path d="M1403.9,3.4c41.2,0,66,21.4,66,57.4c0,28.2-18.3,46.5-38.4,52.7l42.5,77.8h-27.9l-38.9-73.6h-39.2v73.6h-25.1V3.4H1403.9z
		 M1368.1,24.5v72.6h37.1c24.8,0,39.7-13.6,39.7-36.3s-15.7-36.3-41.8-36.3H1368.1z"/>
	<path d="M1509.6,47.5c0-27.1,23.8-47.5,56.1-47.5c32.1,0,56.1,20.4,56.1,47.5c0,24.8-19.6,41.5-35.5,48.3
		c18.3,8.1,39.4,24.8,39.4,50.6c0,27.7-25.1,48.3-60,48.3s-60.3-20.6-60.3-48.3c0-25.8,20.9-42.8,39.7-50.6
		C1528.9,89,1509.6,72.3,1509.6,47.5z M1565.7,173c20.6,0,36-12.5,36-29.2s-15.9-30.8-36-38.4c-20.1,7.6-36.3,21.7-36.3,38.4
		S1545.1,173,1565.7,173z M1565.7,85.6c17.7-7.6,32.1-18.8,32.1-36c0-15.9-13.8-28.2-32.1-28.2c-18.5,0-32.1,12.3-32.1,28.2
		C1533.6,66.8,1547.7,78,1565.7,85.6z"/>
	<path d="M1661.2,191.3l73.3-166.3h-86.7V3.4H1769l-81.2,187.9H1661.2z"/>
</g>
</svg>
